# xmcd
#
# Track frame offsets:
#	150
#	20232
#	32437
#	44462
#	57452
#	70700
#	83335
#	98532
#	112417
#	127482
#	145425
#	159815
#	174850
#	190067
#
# Disc length: 2728 seconds
#
# Revision: 0
# Processed by: cddbd v1.4PL0 Copyright (c) Steve Scherf et al.
# Submitted via: EasyCDDAExtractor 4.5.2.1
#
DISCID=bc0aa60e
DTITLE=Byron Hill - Gravity
DYEAR=1999
DGENRE=Country
TTITLE0=After You're Gone
TTITLE1=Took Her to the Moon
TTITLE2=Trail of String
TTITLE3=Gravity
TTITLE4=Eyes of Wonder
TTITLE5=Hold That Thought
TTITLE6=That's What Love Will Make You Do
TTITLE7=Musical Chairs
TTITLE8=Serious Crime
TTITLE9=Plan B
TTITLE10=Love's in the Here and Now
TTITLE11=Politics, Religion, and Her
TTITLE12=You Sure peeled the onion
TTITLE13=Thanks for the G Chord
EXTD=
EXTT0=
EXTT1=
EXTT2=
EXTT3=
EXTT4=
EXTT5=
EXTT6=
EXTT7=
EXTT8=
EXTT9=
EXTT10=
EXTT11=
EXTT12=
EXTT13=
PLAYORDER=
